{"title":"Tere Bin Laden 2 (2016) ~2CD DvDrip XviD A3 5.1 ESub [DDR]","uid":14829190,"size":1499343266,"categoryP":"video","categoryS":"movies","magnet":"?xt=urn:btih:02d6196587c221f4de1f0d0bbf4d5850d80a5bad&amp;dn=Tere+Bin+Laden+2+%282016%29+%7E2CD+DvDrip+XviD+A3+5.1+ESub+%5BDDR%5D&amp;tr=udp%3A%2F%2Ftracker.leechers-paradise.org%3A6969&amp;tr=udp%3A%2F%2Fzer0day.ch%3A1337&amp;tr=udp%3A%2F%2Fopen.demonii.com%3A1337&amp;tr=udp%3A%2F%2Ftracker.coppersurfer.tk%3A6969&amp;tr=udp%3A%2F%2Fexodus.desync.com%3A6969","seeders":2,"leechers":4,"uploader":"SaM","files":3,"time":1465329116,"description":"- BollywooD MoviE -\r\n**- Tere Bin Laden - 2 -**\r\n- 2016 -\r\n** 1/3 DvD / XviD / AC3 5.1 **\r\nEnglish subtitle(s) \r\n\r\n~* SCREENSHOTS *~ \r\n \nhttp://extraimago.com/image/a4Bx \nhttp://extraimago.com/image/a4Bt \nhttp://extraimago.com/image/a4Bo \nhttp://extraimago.com/image/a4Bk \nhttp://extraimago.com/image/a4BH \nhttp://extraimago.com/image/a4BF \nhttp://extraimago.com/image/a4BD \nhttp://extraimago.com/image/a4B5 \nhttp://extraimago.com/image/a4Bg \nhttp://extraimago.com/image/a4BX \nhttp://extraimago.com/image/a4BP \nhttp://extraimago.com/image/a4BG \nhttp://extraimago.com/image/a4Br \nhttp://extraimago.com/image/a4Bp \nhttp://extraimago.com/image/a4BY\r\n\r\n[ Specs ]\r\nGeneral\r\nSource = DVD9 @ DDR\r\nFormat : AVI\r\nFile size : 1.38 GiB\r\nDuration : 1h 43mn\r\nOverall bit rate : 1 905 Kbps\r\n\r\nVideo\r\nFormat : MPEG-4 Visual\r\nFormat profile : Advanced   \r\nFormat settings, Matrix : Custom\r\nCodec ID : XVID\r\nDuration : 1h 43mn\r\nBit rate : 1 637 Kbps\r\nWidth : 720 pixels\r\nHeight : 304 pixels\r\nDisplay aspect ratio : 2.35:1\r\nFrame rate : 23.976 (24000/1001) fps\r\ncolor space : YUV\r\nChroma subsampling : 4:2:0\r\nBit depth : 8 bits\r\nScan type : Progressive\r\nCompression mode : Lossy\r\nBits/(Pixel*Frame) : 0.312\r\nStream size : 1.19 GiB (86%)\r\n\r\nAudio\r\nFormat : AC-3\r\nFormat/Info : Audio Coding 3\r\nBit rate mode : Constant\r\nBit rate : 256 Kbps\r\nChannel(s) : 6 channels\r\nChannel positions : Front: L C R, Side: L R, LFE\r\nSampling rate : 48.0 KHz\r\nFrame rate : 31.250 fps (1536 spf)\r\nCompression mode : Lossy\r\nStream size : 190 MiB (13%)\r\n\r\nChapters: N/A\r\nSample: YES - included\r\n\r\nA DDR Exclusive Release...!","torrent":{"xt":"urn:btih:02d6196587c221f4de1f0d0bbf4d5850d80a5bad","amp;dn":"Tere+Bin+Laden+2+%282016%29+%7E2CD+DvDrip+XviD+A3+5.1+ESub+%5BDDR%5D","amp;tr":["udp%3A%2F%2Ftracker.leechers-paradise.org%3A6969","udp%3A%2F%2Fzer0day.ch%3A1337","udp%3A%2F%2Fopen.demonii.com%3A1337","udp%3A%2F%2Ftracker.coppersurfer.tk%3A6969","udp%3A%2F%2Fexodus.desync.com%3A6969"],"infoHash":"02d6196587c221f4de1f0d0bbf4d5850d80a5bad","infoHashBuffer":{"type":"Buffer","data":[2,214,25,101,135,194,33,244,222,31,13,11,191,77,88,80,216,10,91,173]},"announce":[],"urlList":[]}}